<?xml version="1.0" encoding="UTF-8" standalone="no"?>
<!DOCTYPE svg PUBLIC "-//W3C//DTD SVG 1.1//EN" "http://www.w3.org/Graphics/SVG/1.1/DTD/svg11.dtd">
<svg xmlns="http://www.w3.org/2000/svg" version="1.1" viewBox="0.00 0.00 1080.00 1080.00">
<g stroke-width="2.00" fill="none" stroke-linecap="butt">
<path stroke="#839fb7" vector-effect="non-scaling-stroke" d="
  M 361.4390 388.2313
  A 18.41 18.41 0.0 0 0 343.0611 369.7892
  L 298.1612 369.7109
  A 18.41 18.41 0.0 0 0 279.7191 388.0887
  L 279.6410 432.8087
  A 18.41 18.41 0.0 0 0 298.0189 451.2508
  L 342.9188 451.3291
  A 18.41 18.41 0.0 0 0 361.3609 432.9513
  L 361.4390 388.2313"
/>
<path stroke="#839fb7" vector-effect="non-scaling-stroke" d="
  M 270.1193 399.6632
  A 14.87 14.87 0.0 0 0 255.2233 384.8192
  L 219.8834 384.8809
  A 14.87 14.87 0.0 0 0 205.0394 399.7768
  L 205.1007 434.9368
  A 14.87 14.87 0.0 0 0 219.9967 449.7808
  L 255.3366 449.7191
  A 14.87 14.87 0.0 0 0 270.1806 434.8232
  L 270.1193 399.6632"
/>
<path stroke="#839fb7" vector-effect="non-scaling-stroke" d="
  M 343.03 580.63
  Q 346.38 582.20 351.00 582.22
  Q 364.21 582.30 377.10 582.23
  Q 377.65 582.23 377.65 581.67
  Q 377.60 535.45 377.60 489.39
  C 377.60 486.61 377.45 483.55 378.54 481.27
  C 381.51 475.02 391.31 475.36 393.80 481.89
  Q 394.49 483.70 394.49 488.19
  Q 394.52 534.96 394.49 581.62
  A 0.63 0.63 0.0 0 0 395.12 582.25
  Q 622.10 582.26 849.20 582.25
  C 860.75 582.25 867.41 582.76 873.24 573.22
  Q 875.93 568.83 875.93 561.75
  Q 875.93 493.00 875.95 424.25
  Q 875.95 417.92 875.21 416.04
  Q 871.73 407.30 863.77 404.19
  Q 860.07 402.74 852.04 402.74
  Q 610.16 402.73 368.26 402.74
  Q 367.72 402.74 367.71 403.28
  Q 367.63 418.77 367.78 434.25
  C 367.88 444.43 365.71 453.01 355.83 456.48
  C 349.86 458.58 339.53 457.71 332.15 457.75
  Q 331.73 457.75 331.73 458.17
  Q 331.75 508.88 331.81 559.75
  C 331.83 569.18 333.52 576.19 343.03 580.63"
/>
<path stroke="#839fb7" vector-effect="non-scaling-stroke" d="
  M 317.5446 474.3937
  A 16.54 16.54 0.0 0 0 301.0335 457.8249
  L 261.1536 457.7553
  A 16.54 16.54 0.0 0 0 244.5848 474.2664
  L 244.5154 514.0263
  A 16.54 16.54 0.0 0 0 261.0265 530.5951
  L 300.9064 530.6647
  A 16.54 16.54 0.0 0 0 317.4752 514.1536
  L 317.5446 474.3937"
/>
<path stroke="#848484" vector-effect="non-scaling-stroke" d="
  M 505.5295 641.9551
  A 37.26 34.88 0.3 0 0 468.4526 606.8805
  A 37.26 34.88 0.3 0 0 431.0105 641.5649
  A 37.26 34.88 0.3 0 0 468.0874 676.6395
  A 37.26 34.88 0.3 0 0 505.5295 641.9551"
/>
<path stroke="#848484" vector-effect="non-scaling-stroke" d="
  M 752.11 653.89
  C 753.78 656.82 752.65 659.63 749.41 660.65
  C 740.10 663.58 728.71 660.37 720.62 655.51
  A 0.50 0.50 0.0 0 0 719.91 655.73
  L 714.16 668.43
  A 1.03 1.02 26.0 0 0 714.62 669.76
  C 728.44 677.02 751.14 680.29 764.42 669.68
  C 772.61 663.14 774.06 650.11 766.61 642.75
  C 760.33 636.56 750.36 635.92 742.13 633.67
  C 738.07 632.56 732.21 630.92 734.09 625.93
  C 735.67 621.73 743.31 621.43 746.74 621.81
  Q 754.82 622.71 761.94 626.48
  A 1.00 0.99 -64.7 0 0 763.32 625.98
  L 768.34 613.78
  A 1.02 1.02 0.0 0 0 767.86 612.47
  C 755.54 606.24 738.23 604.84 725.96 611.19
  C 716.78 615.94 712.41 626.58 716.39 635.80
  C 721.31 647.18 737.42 648.35 747.68 651.44
  Q 751.35 652.55 752.11 653.89"
/>
<path stroke="#848484" vector-effect="non-scaling-stroke" d="
  M 267.96 608.67
  A 0.26 0.26 0.0 0 0 267.70 608.41
  L 249.44 608.41
  A 0.26 0.26 0.0 0 0 249.18 608.67
  L 249.18 674.79
  A 0.26 0.26 0.0 0 0 249.44 675.05
  L 267.70 675.05
  A 0.26 0.26 0.0 0 0 267.96 674.79
  L 267.96 608.67"
/>
<path stroke="#848484" vector-effect="non-scaling-stroke" d="
  M 326.52 608.43
  A 0.37 0.37 0.0 0 0 326.15 608.80
  L 326.12 642.92
  A 0.37 0.37 0.0 0 1 325.47 643.16
  L 296.97 608.57
  A 0.37 0.37 0.0 0 0 296.69 608.44
  L 281.58 608.45
  A 0.37 0.37 0.0 0 0 281.21 608.82
  L 281.23 674.66
  A 0.37 0.37 0.0 0 0 281.60 675.03
  L 299.48 675.04
  A 0.37 0.37 0.0 0 0 299.85 674.67
  L 299.78 640.61
  A 0.37 0.37 0.0 0 1 300.44 640.37
  L 328.99 674.91
  A 0.37 0.37 0.0 0 0 329.27 675.04
  L 344.38 675.05
  A 0.37 0.37 0.0 0 0 344.75 674.68
  L 344.72 608.78
  A 0.37 0.37 0.0 0 0 344.35 608.41
  L 326.52 608.43"
/>
<path stroke="#848484" vector-effect="non-scaling-stroke" d="
  M 376.14 675.04
  A 0.36 0.36 0.0 0 0 376.50 674.68
  L 376.51 640.66
  A 0.36 0.36 0.0 0 1 377.15 640.43
  L 405.75 674.91
  A 0.36 0.36 0.0 0 0 406.03 675.04
  L 421.12 675.05
  A 0.36 0.36 0.0 0 0 421.48 674.69
  L 421.43 608.77
  A 0.36 0.36 0.0 0 0 421.07 608.41
  L 403.17 608.43
  A 0.36 0.36 0.0 0 0 402.81 608.79
  L 402.83 642.93
  A 0.36 0.36 0.0 0 1 402.19 643.16
  L 373.63 608.58
  A 0.36 0.36 0.0 0 0 373.35 608.45
  L 358.34 608.39
  A 0.36 0.36 0.0 0 0 357.98 608.75
  L 357.96 674.70
  A 0.36 0.36 0.0 0 0 358.32 675.06
  L 376.14 675.04"
/>
<path stroke="#848484" vector-effect="non-scaling-stroke" d="
  M 543.86 650.89
  A 0.48 0.48 0.0 0 1 542.97 650.89
  L 525.43 608.72
  A 0.48 0.48 0.0 0 0 524.99 608.42
  L 505.75 608.44
  A 0.48 0.48 0.0 0 0 505.30 609.11
  L 533.28 674.75
  A 0.48 0.48 0.0 0 0 533.72 675.04
  L 551.67 675.03
  A 0.48 0.48 0.0 0 0 552.11 674.74
  L 580.24 609.04
  A 0.48 0.48 0.0 0 0 579.80 608.37
  L 562.17 608.49
  A 0.48 0.48 0.0 0 0 561.73 608.78
  L 543.86 650.89"
/>
<path stroke="#848484" vector-effect="non-scaling-stroke" d="
  M 602.51 634.31
  A 0.43 0.43 0.0 0 1 602.08 633.88
  L 602.16 623.56
  A 0.43 0.43 0.0 0 1 602.59 623.13
  L 635.28 623.13
  A 0.43 0.43 0.0 0 0 635.71 622.70
  L 635.73 608.83
  A 0.43 0.43 0.0 0 0 635.30 608.40
  L 584.12 608.45
  A 0.43 0.43 0.0 0 0 583.69 608.88
  L 583.63 674.67
  A 0.43 0.43 0.0 0 0 584.06 675.10
  L 636.60 675.05
  A 0.43 0.43 0.0 0 0 637.03 674.62
  L 637.00 660.83
  A 0.43 0.43 0.0 0 0 636.57 660.40
  L 602.46 660.43
  A 0.43 0.43 0.0 0 1 602.03 659.99
  L 602.26 648.86
  A 0.43 0.43 0.0 0 1 602.69 648.44
  L 631.37 648.48
  A 0.43 0.43 0.0 0 0 631.80 648.05
  L 631.76 634.72
  A 0.43 0.43 0.0 0 0 631.33 634.29
  L 602.51 634.31"
/>
<path stroke="#848484" vector-effect="non-scaling-stroke" d="
  M 799.10 660.47
  A 0.40 0.40 0.0 0 1 798.70 660.07
  L 798.69 648.79
  A 0.40 0.40 0.0 0 1 799.09 648.39
  L 827.90 648.43
  A 0.40 0.40 0.0 0 0 828.30 648.03
  L 828.24 634.70
  A 0.40 0.40 0.0 0 0 827.84 634.30
  L 799.09 634.30
  A 0.40 0.40 0.0 0 1 798.69 633.90
  L 798.72 623.52
  A 0.40 0.40 0.0 0 1 799.12 623.12
  L 831.84 623.10
  A 0.40 0.40 0.0 0 0 832.24 622.70
  L 832.25 608.81
  A 0.40 0.40 0.0 0 0 831.85 608.41
  L 780.32 608.44
  A 0.40 0.40 0.0 0 0 779.92 608.84
  L 779.90 674.64
  A 0.40 0.40 0.0 0 0 780.30 675.04
  L 832.94 675.05
  A 0.40 0.40 0.0 0 0 833.34 674.65
  L 833.36 660.86
  A 0.40 0.40 0.0 0 0 832.96 660.46
  L 799.10 660.47"
/>
<path stroke="#848484" vector-effect="non-scaling-stroke" d="
  M 667.22 657.29
  L 676.23 657.29
  A 1.75 1.73 72.8 0 1 677.67 658.06
  L 688.36 673.99
  A 2.32 2.31 -16.5 0 0 690.27 675.02
  L 708.30 675.08
  A 0.60 0.60 0.0 0 0 708.80 674.14
  L 695.43 654.78
  A 0.61 0.61 0.0 0 1 695.63 653.90
  C 704.67 648.72 708.38 641.54 707.87 631.16
  C 707.18 616.80 694.71 608.94 681.49 608.58
  Q 666.67 608.18 648.56 608.52
  Q 648.08 608.53 648.08 609.00
  L 647.99 674.51
  A 0.56 0.56 0.0 0 0 648.55 675.07
  L 666.18 675.04
  A 0.50 0.50 0.0 0 0 666.68 674.54
  L 666.72 657.78
  Q 666.73 657.29 667.22 657.29"
/>
<path stroke="#839fb7" vector-effect="non-scaling-stroke" d="
  M 391.00 464.34
  C 396.64 463.74 396.72 458.09 396.41 453.69
  C 395.41 439.32 372.00 445.84 379.05 460.48
  C 381.38 465.34 386.09 464.85 391.00 464.34"
/>
<path stroke="#839fb7" vector-effect="non-scaling-stroke" d="
  M 577.1656 466.3868
  A 19.25 19.25 0.0 0 0 557.9493 447.1032
  L 554.3693 447.0969
  A 19.25 19.25 0.0 0 0 535.0857 466.3133
  L 534.9944 518.6532
  A 19.25 19.25 0.0 0 0 554.2107 537.9368
  L 557.7907 537.9431
  A 19.25 19.25 0.0 0 0 577.0743 518.7267
  L 577.1656 466.3868"
/>
<path stroke="#839fb7" vector-effect="non-scaling-stroke" d="
  M 782.02 459.80
  C 788.56 461.11 787.64 467.23 787.55 472.20
  A 0.71 0.71 0.0 0 0 788.25 472.92
  L 800.26 472.93
  A 0.51 0.51 0.0 0 0 800.78 472.45
  C 801.35 460.67 798.19 449.64 785.01 447.29
  Q 778.90 446.21 772.85 448.14
  C 758.37 452.76 757.43 471.50 763.21 482.61
  C 769.95 495.59 789.58 502.55 786.86 519.40
  C 786.21 523.38 784.02 525.39 780.00 525.36
  C 771.53 525.30 772.93 516.80 772.74 511.23
  A 0.50 0.49 -1.2 0 0 772.24 510.76
  L 760.26 510.73
  Q 759.82 510.73 759.79 511.17
  C 758.82 524.70 762.36 536.76 777.89 537.97
  C 788.33 538.78 797.73 534.38 800.22 523.35
  Q 802.98 511.18 797.45 500.68
  C 791.20 488.82 771.16 480.15 774.07 465.32
  Q 775.41 458.48 782.02 459.80"
/>
<path stroke="#839fb7" vector-effect="non-scaling-stroke" d="
  M 443.78 500.64
  A 0.15 0.15 0.0 0 1 443.48 500.67
  L 430.21 448.79
  A 0.15 0.15 0.0 0 0 430.06 448.68
  L 412.82 448.69
  A 0.15 0.15 0.0 0 0 412.67 448.84
  L 412.67 536.37
  A 0.15 0.15 0.0 0 0 412.82 536.52
  L 425.08 536.43
  A 0.15 0.15 0.0 0 0 425.23 536.28
  L 425.10 473.76
  A 0.15 0.15 0.0 0 1 425.23 473.62
  L 425.51 473.58
  A 0.15 0.15 0.0 0 1 425.67 473.70
  L 441.86 536.39
  A 0.15 0.15 0.0 0 0 442.01 536.50
  L 456.11 536.46
  A 0.15 0.15 0.0 0 0 456.26 536.31
  L 456.26 448.84
  A 0.15 0.15 0.0 0 0 456.11 448.69
  L 443.90 448.65
  A 0.15 0.15 0.0 0 0 443.75 448.80
  L 443.78 500.64"
/>
<path stroke="#839fb7" vector-effect="non-scaling-stroke" d="
  M 505.44 498.32
  Q 505.44 501.80 504.58 498.43
  L 492.04 449.49
  A 1.08 1.07 -7.3 0 0 491.00 448.69
  L 475.12 448.68
  Q 474.30 448.68 474.30 449.51
  L 474.30 535.51
  Q 474.30 536.48 475.26 536.48
  L 485.76 536.49
  Q 486.76 536.49 486.76 535.49
  L 486.76 474.24
  Q 486.76 473.03 487.32 474.10
  Q 487.99 475.34 488.45 477.21
  Q 495.67 506.15 503.27 535.53
  A 1.31 1.30 82.3 0 0 504.54 536.51
  L 516.93 536.44
  A 0.87 0.86 -90.0 0 0 517.79 535.57
  L 517.82 449.14
  Q 517.82 448.63 517.31 448.63
  L 506.24 448.70
  Q 505.44 448.70 505.44 449.51
  L 505.44 498.32"
/>
<path stroke="#839fb7" vector-effect="non-scaling-stroke" d="
  M 614.35 515.12
  A 0.31 0.31 0.0 0 1 613.73 515.12
  L 604.96 449.00
  A 0.31 0.31 0.0 0 0 604.65 448.73
  L 591.22 448.67
  A 0.31 0.31 0.0 0 0 590.91 449.03
  L 604.17 536.24
  A 0.31 0.31 0.0 0 0 604.48 536.50
  L 622.36 536.48
  A 0.31 0.31 0.0 0 0 622.67 536.22
  L 635.92 449.02
  A 0.31 0.31 0.0 0 0 635.61 448.66
  L 623.46 448.66
  A 0.31 0.31 0.0 0 0 623.15 448.93
  L 614.35 515.12"
/>
<path stroke="#839fb7" vector-effect="non-scaling-stroke" d="
  M 718.09 499.12
  C 726.07 498.81 730.73 499.73 730.84 509.00
  C 730.95 517.64 730.24 527.15 731.72 535.64
  A 1.03 1.03 0.0 0 0 732.73 536.49
  L 745.71 536.46
  Q 746.15 536.46 746.04 536.03
  C 743.84 527.21 744.88 518.64 744.62 507.25
  C 744.47 501.11 742.50 494.79 736.57 492.59
  A 0.59 0.59 0.0 0 1 736.51 491.51
  C 742.33 488.62 744.67 481.81 744.80 475.75
  C 745.07 462.45 744.07 449.53 727.23 448.93
  Q 715.58 448.52 704.30 448.68
  Q 703.50 448.69 703.50 449.49
  L 703.50 535.86
  Q 703.50 536.48 704.12 536.48
  L 716.48 536.49
  A 0.98 0.97 0.0 0 0 717.46 535.52
  L 717.48 499.76
  A 0.64 0.64 0.0 0 1 718.09 499.12"
/>
<path stroke="#839fb7" vector-effect="non-scaling-stroke" d="
  M 664.39 484.27
  A 0.63 0.63 0.0 0 1 663.76 483.64
  L 663.76 461.86
  A 0.63 0.63 0.0 0 1 664.39 461.23
  L 687.07 461.24
  A 0.63 0.63 0.0 0 0 687.70 460.61
  L 687.70 449.29
  A 0.63 0.63 0.0 0 0 687.07 448.66
  L 650.47 448.69
  A 0.63 0.63 0.0 0 0 649.84 449.32
  L 649.81 535.86
  A 0.63 0.63 0.0 0 0 650.44 536.49
  L 687.08 536.48
  A 0.63 0.63 0.0 0 0 687.71 535.85
  L 687.67 524.39
  A 0.63 0.63 0.0 0 0 687.04 523.76
  L 664.40 523.77
  A 0.63 0.63 0.0 0 1 663.77 523.14
  L 663.77 497.45
  A 0.63 0.63 0.0 0 1 664.40 496.82
  L 682.12 496.86
  A 0.63 0.63 0.0 0 0 682.75 496.23
  L 682.70 484.87
  A 0.63 0.63 0.0 0 0 682.07 484.24
  L 664.39 484.27"
/>
<path stroke="#839fb7" vector-effect="non-scaling-stroke" d="
  M 829.76 461.88
  A 0.69 0.69 0.0 0 1 830.45 461.19
  L 853.03 461.25
  A 0.69 0.69 0.0 0 0 853.72 460.56
  L 853.74 449.36
  A 0.69 0.69 0.0 0 0 853.05 448.67
  L 816.44 448.68
  A 0.69 0.69 0.0 0 0 815.75 449.37
  L 815.76 535.80
  A 0.69 0.69 0.0 0 0 816.45 536.49
  L 852.97 536.48
  A 0.69 0.69 0.0 0 0 853.66 535.80
  L 853.74 524.48
  A 0.69 0.69 0.0 0 0 853.06 523.79
  L 830.43 523.77
  A 0.69 0.69 0.0 0 1 829.74 523.08
  L 829.75 497.52
  A 0.69 0.69 0.0 0 1 830.44 496.83
  L 848.05 496.91
  A 0.69 0.69 0.0 0 0 848.74 496.22
  L 848.76 484.93
  A 0.69 0.69 0.0 0 0 848.07 484.24
  L 830.41 484.26
  A 0.69 0.69 0.0 0 1 829.72 483.57
  L 829.76 461.88"
/>
<path stroke="#839fb7" vector-effect="non-scaling-stroke" d="
  M 563.2653 466.6025
  A 6.84 6.84 0.0 0 0 556.4372 459.7506
  L 555.7972 459.7495
  A 6.84 6.84 0.0 0 0 548.9453 466.5775
  L 548.8547 518.4975
  A 6.84 6.84 0.0 0 0 555.6828 525.3494
  L 556.3228 525.3505
  A 6.84 6.84 0.0 0 0 563.1747 518.5225
  L 563.2653 466.6025"
/>
<path stroke="#839fb7" vector-effect="non-scaling-stroke" d="
  M 717.43 461.64
  L 717.47 486.02
  A 0.55 0.55 0.0 0 0 718.02 486.57
  L 723.45 486.56
  A 7.52 7.30 89.9 0 0 730.74 479.03
  L 730.72 468.59
  A 7.52 7.30 89.9 0 0 723.41 461.08
  L 717.98 461.09
  A 0.55 0.55 0.0 0 0 717.43 461.64"
/>
<path stroke="#848484" vector-effect="non-scaling-stroke" d="
  M 468.2900 660.9800
  A 19.18 18.13 90.0 0 0 486.4200 641.8000
  A 19.18 18.13 90.0 0 0 468.2900 622.6200
  A 19.18 18.13 90.0 0 0 450.1600 641.8000
  A 19.18 18.13 90.0 0 0 468.2900 660.9800"
/>
<path stroke="#848484" vector-effect="non-scaling-stroke" d="
  M 666.77 623.76
  L 666.71 642.26
  A 0.44 0.44 0.0 0 0 667.15 642.70
  L 678.92 642.74
  A 10.09 9.17 0.2 0 0 689.04 633.61
  L 689.04 632.57
  A 10.09 9.17 0.2 0 0 678.98 623.36
  L 667.21 623.32
  A 0.44 0.44 0.0 0 0 666.77 623.76"
/>
</g>
<path fill="#ffffff" d="
  M 0.00 0.00
  L 1080.00 0.00
  L 1080.00 1080.00
  L 0.00 1080.00
  L 0.00 0.00
  Z
  M 361.4390 388.2313
  A 18.41 18.41 0.0 0 0 343.0611 369.7892
  L 298.1612 369.7109
  A 18.41 18.41 0.0 0 0 279.7191 388.0887
  L 279.6410 432.8087
  A 18.41 18.41 0.0 0 0 298.0189 451.2508
  L 342.9188 451.3291
  A 18.41 18.41 0.0 0 0 361.3609 432.9513
  L 361.4390 388.2313
  Z
  M 270.1193 399.6632
  A 14.87 14.87 0.0 0 0 255.2233 384.8192
  L 219.8834 384.8809
  A 14.87 14.87 0.0 0 0 205.0394 399.7768
  L 205.1007 434.9368
  A 14.87 14.87 0.0 0 0 219.9967 449.7808
  L 255.3366 449.7191
  A 14.87 14.87 0.0 0 0 270.1806 434.8232
  L 270.1193 399.6632
  Z
  M 343.03 580.63
  Q 346.38 582.20 351.00 582.22
  Q 364.21 582.30 377.10 582.23
  Q 377.65 582.23 377.65 581.67
  Q 377.60 535.45 377.60 489.39
  C 377.60 486.61 377.45 483.55 378.54 481.27
  C 381.51 475.02 391.31 475.36 393.80 481.89
  Q 394.49 483.70 394.49 488.19
  Q 394.52 534.96 394.49 581.62
  A 0.63 0.63 0.0 0 0 395.12 582.25
  Q 622.10 582.26 849.20 582.25
  C 860.75 582.25 867.41 582.76 873.24 573.22
  Q 875.93 568.83 875.93 561.75
  Q 875.93 493.00 875.95 424.25
  Q 875.95 417.92 875.21 416.04
  Q 871.73 407.30 863.77 404.19
  Q 860.07 402.74 852.04 402.74
  Q 610.16 402.73 368.26 402.74
  Q 367.72 402.74 367.71 403.28
  Q 367.63 418.77 367.78 434.25
  C 367.88 444.43 365.71 453.01 355.83 456.48
  C 349.86 458.58 339.53 457.71 332.15 457.75
  Q 331.73 457.75 331.73 458.17
  Q 331.75 508.88 331.81 559.75
  C 331.83 569.18 333.52 576.19 343.03 580.63
  Z
  M 317.5446 474.3937
  A 16.54 16.54 0.0 0 0 301.0335 457.8249
  L 261.1536 457.7553
  A 16.54 16.54 0.0 0 0 244.5848 474.2664
  L 244.5154 514.0263
  A 16.54 16.54 0.0 0 0 261.0265 530.5951
  L 300.9064 530.6647
  A 16.54 16.54 0.0 0 0 317.4752 514.1536
  L 317.5446 474.3937
  Z
  M 505.5295 641.9551
  A 37.26 34.88 0.3 0 0 468.4526 606.8805
  A 37.26 34.88 0.3 0 0 431.0105 641.5649
  A 37.26 34.88 0.3 0 0 468.0874 676.6395
  A 37.26 34.88 0.3 0 0 505.5295 641.9551
  Z
  M 752.11 653.89
  C 753.78 656.82 752.65 659.63 749.41 660.65
  C 740.10 663.58 728.71 660.37 720.62 655.51
  A 0.50 0.50 0.0 0 0 719.91 655.73
  L 714.16 668.43
  A 1.03 1.02 26.0 0 0 714.62 669.76
  C 728.44 677.02 751.14 680.29 764.42 669.68
  C 772.61 663.14 774.06 650.11 766.61 642.75
  C 760.33 636.56 750.36 635.92 742.13 633.67
  C 738.07 632.56 732.21 630.92 734.09 625.93
  C 735.67 621.73 743.31 621.43 746.74 621.81
  Q 754.82 622.71 761.94 626.48
  A 1.00 0.99 -64.7 0 0 763.32 625.98
  L 768.34 613.78
  A 1.02 1.02 0.0 0 0 767.86 612.47
  C 755.54 606.24 738.23 604.84 725.96 611.19
  C 716.78 615.94 712.41 626.58 716.39 635.80
  C 721.31 647.18 737.42 648.35 747.68 651.44
  Q 751.35 652.55 752.11 653.89
  Z
  M 267.96 608.67
  A 0.26 0.26 0.0 0 0 267.70 608.41
  L 249.44 608.41
  A 0.26 0.26 0.0 0 0 249.18 608.67
  L 249.18 674.79
  A 0.26 0.26 0.0 0 0 249.44 675.05
  L 267.70 675.05
  A 0.26 0.26 0.0 0 0 267.96 674.79
  L 267.96 608.67
  Z
  M 326.52 608.43
  A 0.37 0.37 0.0 0 0 326.15 608.80
  L 326.12 642.92
  A 0.37 0.37 0.0 0 1 325.47 643.16
  L 296.97 608.57
  A 0.37 0.37 0.0 0 0 296.69 608.44
  L 281.58 608.45
  A 0.37 0.37 0.0 0 0 281.21 608.82
  L 281.23 674.66
  A 0.37 0.37 0.0 0 0 281.60 675.03
  L 299.48 675.04
  A 0.37 0.37 0.0 0 0 299.85 674.67
  L 299.78 640.61
  A 0.37 0.37 0.0 0 1 300.44 640.37
  L 328.99 674.91
  A 0.37 0.37 0.0 0 0 329.27 675.04
  L 344.38 675.05
  A 0.37 0.37 0.0 0 0 344.75 674.68
  L 344.72 608.78
  A 0.37 0.37 0.0 0 0 344.35 608.41
  L 326.52 608.43
  Z
  M 376.14 675.04
  A 0.36 0.36 0.0 0 0 376.50 674.68
  L 376.51 640.66
  A 0.36 0.36 0.0 0 1 377.15 640.43
  L 405.75 674.91
  A 0.36 0.36 0.0 0 0 406.03 675.04
  L 421.12 675.05
  A 0.36 0.36 0.0 0 0 421.48 674.69
  L 421.43 608.77
  A 0.36 0.36 0.0 0 0 421.07 608.41
  L 403.17 608.43
  A 0.36 0.36 0.0 0 0 402.81 608.79
  L 402.83 642.93
  A 0.36 0.36 0.0 0 1 402.19 643.16
  L 373.63 608.58
  A 0.36 0.36 0.0 0 0 373.35 608.45
  L 358.34 608.39
  A 0.36 0.36 0.0 0 0 357.98 608.75
  L 357.96 674.70
  A 0.36 0.36 0.0 0 0 358.32 675.06
  L 376.14 675.04
  Z
  M 543.86 650.89
  A 0.48 0.48 0.0 0 1 542.97 650.89
  L 525.43 608.72
  A 0.48 0.48 0.0 0 0 524.99 608.42
  L 505.75 608.44
  A 0.48 0.48 0.0 0 0 505.30 609.11
  L 533.28 674.75
  A 0.48 0.48 0.0 0 0 533.72 675.04
  L 551.67 675.03
  A 0.48 0.48 0.0 0 0 552.11 674.74
  L 580.24 609.04
  A 0.48 0.48 0.0 0 0 579.80 608.37
  L 562.17 608.49
  A 0.48 0.48 0.0 0 0 561.73 608.78
  L 543.86 650.89
  Z
  M 602.51 634.31
  A 0.43 0.43 0.0 0 1 602.08 633.88
  L 602.16 623.56
  A 0.43 0.43 0.0 0 1 602.59 623.13
  L 635.28 623.13
  A 0.43 0.43 0.0 0 0 635.71 622.70
  L 635.73 608.83
  A 0.43 0.43 0.0 0 0 635.30 608.40
  L 584.12 608.45
  A 0.43 0.43 0.0 0 0 583.69 608.88
  L 583.63 674.67
  A 0.43 0.43 0.0 0 0 584.06 675.10
  L 636.60 675.05
  A 0.43 0.43 0.0 0 0 637.03 674.62
  L 637.00 660.83
  A 0.43 0.43 0.0 0 0 636.57 660.40
  L 602.46 660.43
  A 0.43 0.43 0.0 0 1 602.03 659.99
  L 602.26 648.86
  A 0.43 0.43 0.0 0 1 602.69 648.44
  L 631.37 648.48
  A 0.43 0.43 0.0 0 0 631.80 648.05
  L 631.76 634.72
  A 0.43 0.43 0.0 0 0 631.33 634.29
  L 602.51 634.31
  Z
  M 799.10 660.47
  A 0.40 0.40 0.0 0 1 798.70 660.07
  L 798.69 648.79
  A 0.40 0.40 0.0 0 1 799.09 648.39
  L 827.90 648.43
  A 0.40 0.40 0.0 0 0 828.30 648.03
  L 828.24 634.70
  A 0.40 0.40 0.0 0 0 827.84 634.30
  L 799.09 634.30
  A 0.40 0.40 0.0 0 1 798.69 633.90
  L 798.72 623.52
  A 0.40 0.40 0.0 0 1 799.12 623.12
  L 831.84 623.10
  A 0.40 0.40 0.0 0 0 832.24 622.70
  L 832.25 608.81
  A 0.40 0.40 0.0 0 0 831.85 608.41
  L 780.32 608.44
  A 0.40 0.40 0.0 0 0 779.92 608.84
  L 779.90 674.64
  A 0.40 0.40 0.0 0 0 780.30 675.04
  L 832.94 675.05
  A 0.40 0.40 0.0 0 0 833.34 674.65
  L 833.36 660.86
  A 0.40 0.40 0.0 0 0 832.96 660.46
  L 799.10 660.47
  Z
  M 667.22 657.29
  L 676.23 657.29
  A 1.75 1.73 72.8 0 1 677.67 658.06
  L 688.36 673.99
  A 2.32 2.31 -16.5 0 0 690.27 675.02
  L 708.30 675.08
  A 0.60 0.60 0.0 0 0 708.80 674.14
  L 695.43 654.78
  A 0.61 0.61 0.0 0 1 695.63 653.90
  C 704.67 648.72 708.38 641.54 707.87 631.16
  C 707.18 616.80 694.71 608.94 681.49 608.58
  Q 666.67 608.18 648.56 608.52
  Q 648.08 608.53 648.08 609.00
  L 647.99 674.51
  A 0.56 0.56 0.0 0 0 648.55 675.07
  L 666.18 675.04
  A 0.50 0.50 0.0 0 0 666.68 674.54
  L 666.72 657.78
  Q 666.73 657.29 667.22 657.29
  Z"
/>
<rect fill="#073e6e" x="-40.86" y="-40.77" transform="translate(320.54,410.52) rotate(0.1)" width="81.72" height="81.54" rx="18.41"/>
<rect fill="#073e6e" x="-32.54" y="-32.45" transform="translate(237.61,417.30) rotate(-0.1)" width="65.08" height="64.90" rx="14.87"/>
<path fill="#073e6e" d="
  M 343.03 580.63
  C 333.52 576.19 331.83 569.18 331.81 559.75
  Q 331.75 508.88 331.73 458.17
  Q 331.73 457.75 332.15 457.75
  C 339.53 457.71 349.86 458.58 355.83 456.48
  C 365.71 453.01 367.88 444.43 367.78 434.25
  Q 367.63 418.77 367.71 403.28
  Q 367.72 402.74 368.26 402.74
  Q 610.16 402.73 852.04 402.74
  Q 860.07 402.74 863.77 404.19
  Q 871.73 407.30 875.21 416.04
  Q 875.95 417.92 875.95 424.25
  Q 875.93 493.00 875.93 561.75
  Q 875.93 568.83 873.24 573.22
  C 867.41 582.76 860.75 582.25 849.20 582.25
  Q 622.10 582.26 395.12 582.25
  A 0.63 0.63 0.0 0 1 394.49 581.62
  Q 394.52 534.96 394.49 488.19
  Q 394.49 483.70 393.80 481.89
  C 391.31 475.36 381.51 475.02 378.54 481.27
  C 377.45 483.55 377.60 486.61 377.60 489.39
  Q 377.60 535.45 377.65 581.67
  Q 377.65 582.23 377.10 582.23
  Q 364.21 582.30 351.00 582.22
  Q 346.38 582.20 343.03 580.63
  Z
  M 391.00 464.34
  C 396.64 463.74 396.72 458.09 396.41 453.69
  C 395.41 439.32 372.00 445.84 379.05 460.48
  C 381.38 465.34 386.09 464.85 391.00 464.34
  Z
  M 577.1656 466.3868
  A 19.25 19.25 0.0 0 0 557.9493 447.1032
  L 554.3693 447.0969
  A 19.25 19.25 0.0 0 0 535.0857 466.3133
  L 534.9944 518.6532
  A 19.25 19.25 0.0 0 0 554.2107 537.9368
  L 557.7907 537.9431
  A 19.25 19.25 0.0 0 0 577.0743 518.7267
  L 577.1656 466.3868
  Z
  M 782.02 459.80
  C 788.56 461.11 787.64 467.23 787.55 472.20
  A 0.71 0.71 0.0 0 0 788.25 472.92
  L 800.26 472.93
  A 0.51 0.51 0.0 0 0 800.78 472.45
  C 801.35 460.67 798.19 449.64 785.01 447.29
  Q 778.90 446.21 772.85 448.14
  C 758.37 452.76 757.43 471.50 763.21 482.61
  C 769.95 495.59 789.58 502.55 786.86 519.40
  C 786.21 523.38 784.02 525.39 780.00 525.36
  C 771.53 525.30 772.93 516.80 772.74 511.23
  A 0.50 0.49 -1.2 0 0 772.24 510.76
  L 760.26 510.73
  Q 759.82 510.73 759.79 511.17
  C 758.82 524.70 762.36 536.76 777.89 537.97
  C 788.33 538.78 797.73 534.38 800.22 523.35
  Q 802.98 511.18 797.45 500.68
  C 791.20 488.82 771.16 480.15 774.07 465.32
  Q 775.41 458.48 782.02 459.80
  Z
  M 443.78 500.64
  A 0.15 0.15 0.0 0 1 443.48 500.67
  L 430.21 448.79
  A 0.15 0.15 0.0 0 0 430.06 448.68
  L 412.82 448.69
  A 0.15 0.15 0.0 0 0 412.67 448.84
  L 412.67 536.37
  A 0.15 0.15 0.0 0 0 412.82 536.52
  L 425.08 536.43
  A 0.15 0.15 0.0 0 0 425.23 536.28
  L 425.10 473.76
  A 0.15 0.15 0.0 0 1 425.23 473.62
  L 425.51 473.58
  A 0.15 0.15 0.0 0 1 425.67 473.70
  L 441.86 536.39
  A 0.15 0.15 0.0 0 0 442.01 536.50
  L 456.11 536.46
  A 0.15 0.15 0.0 0 0 456.26 536.31
  L 456.26 448.84
  A 0.15 0.15 0.0 0 0 456.11 448.69
  L 443.90 448.65
  A 0.15 0.15 0.0 0 0 443.75 448.80
  L 443.78 500.64
  Z
  M 505.44 498.32
  Q 505.44 501.80 504.58 498.43
  L 492.04 449.49
  A 1.08 1.07 -7.3 0 0 491.00 448.69
  L 475.12 448.68
  Q 474.30 448.68 474.30 449.51
  L 474.30 535.51
  Q 474.30 536.48 475.26 536.48
  L 485.76 536.49
  Q 486.76 536.49 486.76 535.49
  L 486.76 474.24
  Q 486.76 473.03 487.32 474.10
  Q 487.99 475.34 488.45 477.21
  Q 495.67 506.15 503.27 535.53
  A 1.31 1.30 82.3 0 0 504.54 536.51
  L 516.93 536.44
  A 0.87 0.86 -90.0 0 0 517.79 535.57
  L 517.82 449.14
  Q 517.82 448.63 517.31 448.63
  L 506.24 448.70
  Q 505.44 448.70 505.44 449.51
  L 505.44 498.32
  Z
  M 614.35 515.12
  A 0.31 0.31 0.0 0 1 613.73 515.12
  L 604.96 449.00
  A 0.31 0.31 0.0 0 0 604.65 448.73
  L 591.22 448.67
  A 0.31 0.31 0.0 0 0 590.91 449.03
  L 604.17 536.24
  A 0.31 0.31 0.0 0 0 604.48 536.50
  L 622.36 536.48
  A 0.31 0.31 0.0 0 0 622.67 536.22
  L 635.92 449.02
  A 0.31 0.31 0.0 0 0 635.61 448.66
  L 623.46 448.66
  A 0.31 0.31 0.0 0 0 623.15 448.93
  L 614.35 515.12
  Z
  M 718.09 499.12
  C 726.07 498.81 730.73 499.73 730.84 509.00
  C 730.95 517.64 730.24 527.15 731.72 535.64
  A 1.03 1.03 0.0 0 0 732.73 536.49
  L 745.71 536.46
  Q 746.15 536.46 746.04 536.03
  C 743.84 527.21 744.88 518.64 744.62 507.25
  C 744.47 501.11 742.50 494.79 736.57 492.59
  A 0.59 0.59 0.0 0 1 736.51 491.51
  C 742.33 488.62 744.67 481.81 744.80 475.75
  C 745.07 462.45 744.07 449.53 727.23 448.93
  Q 715.58 448.52 704.30 448.68
  Q 703.50 448.69 703.50 449.49
  L 703.50 535.86
  Q 703.50 536.48 704.12 536.48
  L 716.48 536.49
  A 0.98 0.97 0.0 0 0 717.46 535.52
  L 717.48 499.76
  A 0.64 0.64 0.0 0 1 718.09 499.12
  Z
  M 664.39 484.27
  A 0.63 0.63 0.0 0 1 663.76 483.64
  L 663.76 461.86
  A 0.63 0.63 0.0 0 1 664.39 461.23
  L 687.07 461.24
  A 0.63 0.63 0.0 0 0 687.70 460.61
  L 687.70 449.29
  A 0.63 0.63 0.0 0 0 687.07 448.66
  L 650.47 448.69
  A 0.63 0.63 0.0 0 0 649.84 449.32
  L 649.81 535.86
  A 0.63 0.63 0.0 0 0 650.44 536.49
  L 687.08 536.48
  A 0.63 0.63 0.0 0 0 687.71 535.85
  L 687.67 524.39
  A 0.63 0.63 0.0 0 0 687.04 523.76
  L 664.40 523.77
  A 0.63 0.63 0.0 0 1 663.77 523.14
  L 663.77 497.45
  A 0.63 0.63 0.0 0 1 664.40 496.82
  L 682.12 496.86
  A 0.63 0.63 0.0 0 0 682.75 496.23
  L 682.70 484.87
  A 0.63 0.63 0.0 0 0 682.07 484.24
  L 664.39 484.27
  Z
  M 829.76 461.88
  A 0.69 0.69 0.0 0 1 830.45 461.19
  L 853.03 461.25
  A 0.69 0.69 0.0 0 0 853.72 460.56
  L 853.74 449.36
  A 0.69 0.69 0.0 0 0 853.05 448.67
  L 816.44 448.68
  A 0.69 0.69 0.0 0 0 815.75 449.37
  L 815.76 535.80
  A 0.69 0.69 0.0 0 0 816.45 536.49
  L 852.97 536.48
  A 0.69 0.69 0.0 0 0 853.66 535.80
  L 853.74 524.48
  A 0.69 0.69 0.0 0 0 853.06 523.79
  L 830.43 523.77
  A 0.69 0.69 0.0 0 1 829.74 523.08
  L 829.75 497.52
  A 0.69 0.69 0.0 0 1 830.44 496.83
  L 848.05 496.91
  A 0.69 0.69 0.0 0 0 848.74 496.22
  L 848.76 484.93
  A 0.69 0.69 0.0 0 0 848.07 484.24
  L 830.41 484.26
  A 0.69 0.69 0.0 0 1 829.72 483.57
  L 829.76 461.88
  Z"
/>
<path fill="#ffffff" d="
  M 396.41 453.69
  C 396.72 458.09 396.64 463.74 391.00 464.34
  C 386.09 464.85 381.38 465.34 379.05 460.48
  C 372.00 445.84 395.41 439.32 396.41 453.69
  Z"
/>
<path fill="#ffffff" d="
  M 577.0743 518.7267
  A 19.25 19.25 0.0 0 1 557.7907 537.9431
  L 554.2107 537.9368
  A 19.25 19.25 0.0 0 1 534.9944 518.6532
  L 535.0857 466.3133
  A 19.25 19.25 0.0 0 1 554.3693 447.0969
  L 557.9493 447.1032
  A 19.25 19.25 0.0 0 1 577.1656 466.3868
  L 577.0743 518.7267
  Z
  M 563.2653 466.6025
  A 6.84 6.84 0.0 0 0 556.4372 459.7506
  L 555.7972 459.7495
  A 6.84 6.84 0.0 0 0 548.9453 466.5775
  L 548.8547 518.4975
  A 6.84 6.84 0.0 0 0 555.6828 525.3494
  L 556.3228 525.3505
  A 6.84 6.84 0.0 0 0 563.1747 518.5225
  L 563.2653 466.6025
  Z"
/>
<path fill="#ffffff" d="
  M 782.02 459.80
  Q 775.41 458.48 774.07 465.32
  C 771.16 480.15 791.20 488.82 797.45 500.68
  Q 802.98 511.18 800.22 523.35
  C 797.73 534.38 788.33 538.78 777.89 537.97
  C 762.36 536.76 758.82 524.70 759.79 511.17
  Q 759.82 510.73 760.26 510.73
  L 772.24 510.76
  A 0.50 0.49 -1.2 0 1 772.74 511.23
  C 772.93 516.80 771.53 525.30 780.00 525.36
  C 784.02 525.39 786.21 523.38 786.86 519.40
  C 789.58 502.55 769.95 495.59 763.21 482.61
  C 757.43 471.50 758.37 452.76 772.85 448.14
  Q 778.90 446.21 785.01 447.29
  C 798.19 449.64 801.35 460.67 800.78 472.45
  A 0.51 0.51 0.0 0 1 800.26 472.93
  L 788.25 472.92
  A 0.71 0.71 0.0 0 1 787.55 472.20
  C 787.64 467.23 788.56 461.11 782.02 459.80
  Z"
/>
<path fill="#ffffff" d="
  M 443.78 500.64
  L 443.75 448.80
  A 0.15 0.15 0.0 0 1 443.90 448.65
  L 456.11 448.69
  A 0.15 0.15 0.0 0 1 456.26 448.84
  L 456.26 536.31
  A 0.15 0.15 0.0 0 1 456.11 536.46
  L 442.01 536.50
  A 0.15 0.15 0.0 0 1 441.86 536.39
  L 425.67 473.70
  A 0.15 0.15 0.0 0 0 425.51 473.58
  L 425.23 473.62
  A 0.15 0.15 0.0 0 0 425.10 473.76
  L 425.23 536.28
  A 0.15 0.15 0.0 0 1 425.08 536.43
  L 412.82 536.52
  A 0.15 0.15 0.0 0 1 412.67 536.37
  L 412.67 448.84
  A 0.15 0.15 0.0 0 1 412.82 448.69
  L 430.06 448.68
  A 0.15 0.15 0.0 0 1 430.21 448.79
  L 443.48 500.67
  A 0.15 0.15 0.0 0 0 443.78 500.64
  Z"
/>
<path fill="#ffffff" d="
  M 505.44 498.32
  L 505.44 449.51
  Q 505.44 448.70 506.24 448.70
  L 517.31 448.63
  Q 517.82 448.63 517.82 449.14
  L 517.79 535.57
  A 0.87 0.86 90.0 0 1 516.93 536.44
  L 504.54 536.51
  A 1.31 1.30 82.3 0 1 503.27 535.53
  Q 495.67 506.15 488.45 477.21
  Q 487.99 475.34 487.32 474.10
  Q 486.76 473.03 486.76 474.24
  L 486.76 535.49
  Q 486.76 536.49 485.76 536.49
  L 475.26 536.48
  Q 474.30 536.48 474.30 535.51
  L 474.30 449.51
  Q 474.30 448.68 475.12 448.68
  L 491.00 448.69
  A 1.08 1.07 -7.3 0 1 492.04 449.49
  L 504.58 498.43
  Q 505.44 501.80 505.44 498.32
  Z"
/>
<path fill="#ffffff" d="
  M 614.35 515.12
  L 623.15 448.93
  A 0.31 0.31 0.0 0 1 623.46 448.66
  L 635.61 448.66
  A 0.31 0.31 0.0 0 1 635.92 449.02
  L 622.67 536.22
  A 0.31 0.31 0.0 0 1 622.36 536.48
  L 604.48 536.50
  A 0.31 0.31 0.0 0 1 604.17 536.24
  L 590.91 449.03
  A 0.31 0.31 0.0 0 1 591.22 448.67
  L 604.65 448.73
  A 0.31 0.31 0.0 0 1 604.96 449.00
  L 613.73 515.12
  A 0.31 0.31 0.0 0 0 614.35 515.12
  Z"
/>
<path fill="#ffffff" d="
  M 718.09 499.12
  A 0.64 0.64 0.0 0 0 717.48 499.76
  L 717.46 535.52
  A 0.98 0.97 -0.0 0 1 716.48 536.49
  L 704.12 536.48
  Q 703.50 536.48 703.50 535.86
  L 703.50 449.49
  Q 703.50 448.69 704.30 448.68
  Q 715.58 448.52 727.23 448.93
  C 744.07 449.53 745.07 462.45 744.80 475.75
  C 744.67 481.81 742.33 488.62 736.51 491.51
  A 0.59 0.59 0.0 0 0 736.57 492.59
  C 742.50 494.79 744.47 501.11 744.62 507.25
  C 744.88 518.64 743.84 527.21 746.04 536.03
  Q 746.15 536.46 745.71 536.46
  L 732.73 536.49
  A 1.03 1.03 0.0 0 1 731.72 535.64
  C 730.24 527.15 730.95 517.64 730.84 509.00
  C 730.73 499.73 726.07 498.81 718.09 499.12
  Z
  M 717.43 461.64
  L 717.47 486.02
  A 0.55 0.55 0.0 0 0 718.02 486.57
  L 723.45 486.56
  A 7.52 7.30 89.9 0 0 730.74 479.03
  L 730.72 468.59
  A 7.52 7.30 89.9 0 0 723.41 461.08
  L 717.98 461.09
  A 0.55 0.55 0.0 0 0 717.43 461.64
  Z"
/>
<path fill="#ffffff" d="
  M 664.39 484.27
  L 682.07 484.24
  A 0.63 0.63 0.0 0 1 682.70 484.87
  L 682.75 496.23
  A 0.63 0.63 0.0 0 1 682.12 496.86
  L 664.40 496.82
  A 0.63 0.63 0.0 0 0 663.77 497.45
  L 663.77 523.14
  A 0.63 0.63 0.0 0 0 664.40 523.77
  L 687.04 523.76
  A 0.63 0.63 0.0 0 1 687.67 524.39
  L 687.71 535.85
  A 0.63 0.63 0.0 0 1 687.08 536.48
  L 650.44 536.49
  A 0.63 0.63 0.0 0 1 649.81 535.86
  L 649.84 449.32
  A 0.63 0.63 0.0 0 1 650.47 448.69
  L 687.07 448.66
  A 0.63 0.63 0.0 0 1 687.70 449.29
  L 687.70 460.61
  A 0.63 0.63 0.0 0 1 687.07 461.24
  L 664.39 461.23
  A 0.63 0.63 0.0 0 0 663.76 461.86
  L 663.76 483.64
  A 0.63 0.63 0.0 0 0 664.39 484.27
  Z"
/>
<path fill="#ffffff" d="
  M 829.76 461.88
  L 829.72 483.57
  A 0.69 0.69 0.0 0 0 830.41 484.26
  L 848.07 484.24
  A 0.69 0.69 0.0 0 1 848.76 484.93
  L 848.74 496.22
  A 0.69 0.69 0.0 0 1 848.05 496.91
  L 830.44 496.83
  A 0.69 0.69 0.0 0 0 829.75 497.52
  L 829.74 523.08
  A 0.69 0.69 0.0 0 0 830.43 523.77
  L 853.06 523.79
  A 0.69 0.69 0.0 0 1 853.74 524.48
  L 853.66 535.80
  A 0.69 0.69 0.0 0 1 852.97 536.48
  L 816.45 536.49
  A 0.69 0.69 0.0 0 1 815.76 535.80
  L 815.75 449.37
  A 0.69 0.69 0.0 0 1 816.44 448.68
  L 853.05 448.67
  A 0.69 0.69 0.0 0 1 853.74 449.36
  L 853.72 460.56
  A 0.69 0.69 0.0 0 1 853.03 461.25
  L 830.45 461.19
  A 0.69 0.69 0.0 0 0 829.76 461.88
  Z"
/>
<rect fill="#073e6e" x="-36.48" y="-36.42" transform="translate(281.03,494.21) rotate(0.1)" width="72.96" height="72.84" rx="16.54"/>
<rect fill="#073e6e" x="-7.16" y="-32.80" transform="translate(556.06,492.55) rotate(0.1)" width="14.32" height="65.60" rx="6.84"/>
<path fill="#073e6e" d="
  M 717.43 461.64
  A 0.55 0.55 0.0 0 1 717.98 461.09
  L 723.41 461.08
  A 7.52 7.30 89.9 0 1 730.72 468.59
  L 730.74 479.03
  A 7.52 7.30 89.9 0 1 723.45 486.56
  L 718.02 486.57
  A 0.55 0.55 0.0 0 1 717.47 486.02
  L 717.43 461.64
  Z"
/>
<path fill="#080808" d="
  M 505.5295 641.9551
  A 37.26 34.88 0.3 0 1 468.0874 676.6395
  A 37.26 34.88 0.3 0 1 431.0105 641.5649
  A 37.26 34.88 0.3 0 1 468.4526 606.8805
  A 37.26 34.88 0.3 0 1 505.5295 641.9551
  Z
  M 468.2900 660.9800
  A 19.18 18.13 90.0 0 0 486.4200 641.8000
  A 19.18 18.13 90.0 0 0 468.2900 622.6200
  A 19.18 18.13 90.0 0 0 450.1600 641.8000
  A 19.18 18.13 90.0 0 0 468.2900 660.9800
  Z"
/>
<path fill="#080808" d="
  M 749.41 660.65
  C 752.65 659.63 753.78 656.82 752.11 653.89
  Q 751.35 652.55 747.68 651.44
  C 737.42 648.35 721.31 647.18 716.39 635.80
  C 712.41 626.58 716.78 615.94 725.96 611.19
  C 738.23 604.84 755.54 606.24 767.86 612.47
  A 1.02 1.02 0.0 0 1 768.34 613.78
  L 763.32 625.98
  A 1.00 0.99 -64.7 0 1 761.94 626.48
  Q 754.82 622.71 746.74 621.81
  C 743.31 621.43 735.67 621.73 734.09 625.93
  C 732.21 630.92 738.07 632.56 742.13 633.67
  C 750.36 635.92 760.33 636.56 766.61 642.75
  C 774.06 650.11 772.61 663.14 764.42 669.68
  C 751.14 680.29 728.44 677.02 714.62 669.76
  A 1.03 1.02 26.0 0 1 714.16 668.43
  L 719.91 655.73
  A 0.50 0.50 0.0 0 1 720.62 655.51
  C 728.71 660.37 740.10 663.58 749.41 660.65
  Z"
/>
<rect fill="#080808" x="249.18" y="608.41" width="18.78" height="66.64" rx="0.26"/>
<path fill="#080808" d="
  M 326.52 608.43
  L 344.35 608.41
  A 0.37 0.37 0.0 0 1 344.72 608.78
  L 344.75 674.68
  A 0.37 0.37 0.0 0 1 344.38 675.05
  L 329.27 675.04
  A 0.37 0.37 0.0 0 1 328.99 674.91
  L 300.44 640.37
  A 0.37 0.37 0.0 0 0 299.78 640.61
  L 299.85 674.67
  A 0.37 0.37 0.0 0 1 299.48 675.04
  L 281.60 675.03
  A 0.37 0.37 0.0 0 1 281.23 674.66
  L 281.21 608.82
  A 0.37 0.37 0.0 0 1 281.58 608.45
  L 296.69 608.44
  A 0.37 0.37 0.0 0 1 296.97 608.57
  L 325.47 643.16
  A 0.37 0.37 0.0 0 0 326.12 642.92
  L 326.15 608.80
  A 0.37 0.37 0.0 0 1 326.52 608.43
  Z"
/>
<path fill="#080808" d="
  M 376.14 675.04
  L 358.32 675.06
  A 0.36 0.36 0.0 0 1 357.96 674.70
  L 357.98 608.75
  A 0.36 0.36 0.0 0 1 358.34 608.39
  L 373.35 608.45
  A 0.36 0.36 0.0 0 1 373.63 608.58
  L 402.19 643.16
  A 0.36 0.36 0.0 0 0 402.83 642.93
  L 402.81 608.79
  A 0.36 0.36 0.0 0 1 403.17 608.43
  L 421.07 608.41
  A 0.36 0.36 0.0 0 1 421.43 608.77
  L 421.48 674.69
  A 0.36 0.36 0.0 0 1 421.12 675.05
  L 406.03 675.04
  A 0.36 0.36 0.0 0 1 405.75 674.91
  L 377.15 640.43
  A 0.36 0.36 0.0 0 0 376.51 640.66
  L 376.50 674.68
  A 0.36 0.36 0.0 0 1 376.14 675.04
  Z"
/>
<path fill="#080808" d="
  M 543.86 650.89
  L 561.73 608.78
  A 0.48 0.48 0.0 0 1 562.17 608.49
  L 579.80 608.37
  A 0.48 0.48 0.0 0 1 580.24 609.04
  L 552.11 674.74
  A 0.48 0.48 0.0 0 1 551.67 675.03
  L 533.72 675.04
  A 0.48 0.48 0.0 0 1 533.28 674.75
  L 505.30 609.11
  A 0.48 0.48 0.0 0 1 505.75 608.44
  L 524.99 608.42
  A 0.48 0.48 0.0 0 1 525.43 608.72
  L 542.97 650.89
  A 0.48 0.48 0.0 0 0 543.86 650.89
  Z"
/>
<path fill="#080808" d="
  M 602.51 634.31
  L 631.33 634.29
  A 0.43 0.43 0.0 0 1 631.76 634.72
  L 631.80 648.05
  A 0.43 0.43 0.0 0 1 631.37 648.48
  L 602.69 648.44
  A 0.43 0.43 0.0 0 0 602.26 648.86
  L 602.03 659.99
  A 0.43 0.43 0.0 0 0 602.46 660.43
  L 636.57 660.40
  A 0.43 0.43 0.0 0 1 637.00 660.83
  L 637.03 674.62
  A 0.43 0.43 0.0 0 1 636.60 675.05
  L 584.06 675.10
  A 0.43 0.43 0.0 0 1 583.63 674.67
  L 583.69 608.88
  A 0.43 0.43 0.0 0 1 584.12 608.45
  L 635.30 608.40
  A 0.43 0.43 0.0 0 1 635.73 608.83
  L 635.71 622.70
  A 0.43 0.43 0.0 0 1 635.28 623.13
  L 602.59 623.13
  A 0.43 0.43 0.0 0 0 602.16 623.56
  L 602.08 633.88
  A 0.43 0.43 0.0 0 0 602.51 634.31
  Z"
/>
<path fill="#080808" d="
  M 799.10 660.47
  L 832.96 660.46
  A 0.40 0.40 0.0 0 1 833.36 660.86
  L 833.34 674.65
  A 0.40 0.40 0.0 0 1 832.94 675.05
  L 780.30 675.04
  A 0.40 0.40 0.0 0 1 779.90 674.64
  L 779.92 608.84
  A 0.40 0.40 0.0 0 1 780.32 608.44
  L 831.85 608.41
  A 0.40 0.40 0.0 0 1 832.25 608.81
  L 832.24 622.70
  A 0.40 0.40 0.0 0 1 831.84 623.10
  L 799.12 623.12
  A 0.40 0.40 0.0 0 0 798.72 623.52
  L 798.69 633.90
  A 0.40 0.40 0.0 0 0 799.09 634.30
  L 827.84 634.30
  A 0.40 0.40 0.0 0 1 828.24 634.70
  L 828.30 648.03
  A 0.40 0.40 0.0 0 1 827.90 648.43
  L 799.09 648.39
  A 0.40 0.40 0.0 0 0 798.69 648.79
  L 798.70 660.07
  A 0.40 0.40 0.0 0 0 799.10 660.47
  Z"
/>
<path fill="#080808" d="
  M 666.72 657.78
  L 666.68 674.54
  A 0.50 0.50 0.0 0 1 666.18 675.04
  L 648.55 675.07
  A 0.56 0.56 0.0 0 1 647.99 674.51
  L 648.08 609.00
  Q 648.08 608.53 648.56 608.52
  Q 666.67 608.18 681.49 608.58
  C 694.71 608.94 707.18 616.80 707.87 631.16
  C 708.38 641.54 704.67 648.72 695.63 653.90
  A 0.61 0.61 0.0 0 0 695.43 654.78
  L 708.80 674.14
  A 0.60 0.60 0.0 0 1 708.30 675.08
  L 690.27 675.02
  A 2.32 2.31 -16.5 0 1 688.36 673.99
  L 677.67 658.06
  A 1.75 1.73 72.8 0 0 676.23 657.29
  L 667.22 657.29
  Q 666.73 657.29 666.72 657.78
  Z
  M 666.77 623.76
  L 666.71 642.26
  A 0.44 0.44 0.0 0 0 667.15 642.70
  L 678.92 642.74
  A 10.09 9.17 0.2 0 0 689.04 633.61
  L 689.04 632.57
  A 10.09 9.17 0.2 0 0 678.98 623.36
  L 667.21 623.32
  A 0.44 0.44 0.0 0 0 666.77 623.76
  Z"
/>
<ellipse fill="#ffffff" cx="0.00" cy="0.00" transform="translate(468.29,641.80) rotate(90.0)" rx="19.18" ry="18.13"/>
<path fill="#ffffff" d="
  M 666.77 623.76
  A 0.44 0.44 0.0 0 1 667.21 623.32
  L 678.98 623.36
  A 10.09 9.17 0.2 0 1 689.04 632.57
  L 689.04 633.61
  A 10.09 9.17 0.2 0 1 678.92 642.74
  L 667.15 642.70
  A 0.44 0.44 0.0 0 1 666.71 642.26
  L 666.77 623.76
  Z"
/>
</svg>
